<?xml version="1.0" encoding="UTF-8"?>
<svg xmlns="http://www.w3.org/2000/svg" viewBox="0 0 950 500" width="950" height="500">
  <defs>
    <linearGradient id="deepmindGrad" x1="0%" y1="0%" x2="100%" y2="100%">
      <stop offset="0%" style="stop-color:#1565C0"/>
      <stop offset="100%" style="stop-color:#42A5F5"/>
    </linearGradient>
    <linearGradient id="proteinGrad" x1="0%" y1="0%" x2="100%" y2="100%">
      <stop offset="0%" style="stop-color:#7B1FA2"/>
      <stop offset="100%" style="stop-color:#CE93D8"/>
    </linearGradient>
    <linearGradient id="msa Grad" x1="0%" y1="0%" x2="100%" y2="0%">
      <stop offset="0%" style="stop-color:#00897B"/>
      <stop offset="100%" style="stop-color:#4DB6AC"/>
    </linearGradient>
    <linearGradient id="evoGrad" x1="0%" y1="0%" x2="100%" y2="0%">
      <stop offset="0%" style="stop-color:#FF6F00"/>
      <stop offset="100%" style="stop-color:#FFCA28"/>
    </linearGradient>
    <filter id="shadow">
      <feDropShadow dx="3" dy="4" stdDeviation="4" flood-opacity="0.15"/>
    </filter>
    <marker id="arrow" markerWidth="10" markerHeight="7" refX="9" refY="3.5" orient="auto">
      <polygon points="0 0, 10 3.5, 0 7" fill="#5C6BC0"/>
    </marker>
  </defs>
  
  <rect width="100%" height="100%" fill="#F5F5F5" rx="12"/>
  
  <!-- Title -->
  <text x="475" y="45" text-anchor="middle" font-family="'Segoe UI', Arial" font-size="28" font-weight="700" fill="#1565C0">AlphaFold: AI-Powered Protein Structure Prediction</text>
  <text x="475" y="72" text-anchor="middle" font-family="'Segoe UI', Arial" font-size="13" fill="#5C6BC0">DeepMind &amp; EMBL-EBI | 200+ Million Structures Predicted</text>
  
  <!-- Input: Amino Acid Sequence -->
  <g transform="translate(40, 100)" filter="url(#shadow)">
    <rect width="200" height="140" rx="12" fill="white" stroke="#00897B" stroke-width="2"/>
    <rect width="200" height="35" rx="12" fill="#00897B"/>
    <text x="100" y="24" text-anchor="middle" font-family="'Segoe UI', Arial" font-size="14" font-weight="600" fill="white">Input Sequence</text>
    
    <text x="100" y="60" text-anchor="middle" font-family="'Courier New'" font-size="11" fill="#00695C">MVLSPADKTNVKAAWGKVG</text>
    <text x="100" y="78" text-anchor="middle" font-family="'Courier New'" font-size="11" fill="#00695C">AHAGEYGAEALERMFLSFP</text>
    <text x="100" y="96" text-anchor="middle" font-family="'Courier New'" font-size="11" fill="#00695C">TTKTYFPHFDLSH......</text>
    
    <rect x="30" y="110" width="140" height="22" rx="4" fill="#E0F2F1"/>
    <text x="100" y="125" text-anchor="middle" font-family="'Segoe UI', Arial" font-size="10" fill="#00695C">FASTA Format</text>
  </g>
  
  <!-- Arrow -->
  <line x1="250" y1="170" x2="290" y2="170" stroke="#5C6BC0" stroke-width="3" marker-end="url(#arrow)"/>
  
  <!-- MSA & Templates -->
  <g transform="translate(310, 100)" filter="url(#shadow)">
    <rect width="180" height="140" rx="12" fill="white" stroke="#FF6F00" stroke-width="2"/>
    <rect width="180" height="35" rx="12" fill="#FF6F00"/>
    <text x="90" y="24" text-anchor="middle" font-family="'Segoe UI', Arial" font-size="14" font-weight="600" fill="white">MSA + Templates</text>
    
    <!-- MSA visualization -->
    <g transform="translate(15, 50)">
      <rect width="150" height="14" rx="2" fill="#FFE0B2"/>
      <text x="5" y="11" font-family="'Courier New'" font-size="9" fill="#E65100">MVLSPADKTNVKAAWGKVG</text>
      <rect y="18" width="150" height="14" rx="2" fill="#FFECB3"/>
      <text x="5" y="29" font-family="'Courier New'" font-size="9" fill="#E65100">MVLSAADKTN-KAAWGKVG</text>
      <rect y="36" width="150" height="14" rx="2" fill="#FFE0B2"/>
      <text x="5" y="47" font-family="'Courier New'" font-size="9" fill="#E65100">MVLS-ADKTNVKAAWGKAG</text>
      <rect y="54" width="150" height="14" rx="2" fill="#FFECB3"/>
      <text x="5" y="65" font-family="'Courier New'" font-size="9" fill="#E65100">MVLSPADKTN-KAAWGKVG</text>
    </g>
    
    <text x="90" y="130" text-anchor="middle" font-family="'Segoe UI', Arial" font-size="9" fill="#BF360C">Evolutionary Information</text>
  </g>
  
  <!-- Arrow -->
  <line x1="500" y1="170" x2="540" y2="170" stroke="#5C6BC0" stroke-width="3" marker-end="url(#arrow)"/>
  
  <!-- Neural Network -->
  <g transform="translate(560, 95)" filter="url(#shadow)">
    <rect width="180" height="150" rx="12" fill="url(#deepmindGrad)"/>
    <text x="90" y="28" text-anchor="middle" font-family="'Segoe UI', Arial" font-size="14" font-weight="600" fill="white">AlphaFold2 Model</text>
    
    <!-- Neural network visualization -->
    <g transform="translate(90, 85)">
      <!-- Evoformer -->
      <rect x="-65" y="-30" width="50" height="60" rx="6" fill="#1976D2"/>
      <text x="-40" y="-5" text-anchor="middle" font-family="'Segoe UI', Arial" font-size="8" fill="white">Evo-</text>
      <text x="-40" y="8" text-anchor="middle" font-family="'Segoe UI', Arial" font-size="8" fill="white">former</text>
      
      <!-- Structure Module -->
      <rect x="15" y="-30" width="50" height="60" rx="6" fill="#0D47A1"/>
      <text x="40" y="-5" text-anchor="middle" font-family="'Segoe UI', Arial" font-size="8" fill="white">Structure</text>
      <text x="40" y="8" text-anchor="middle" font-family="'Segoe UI', Arial" font-size="8" fill="white">Module</text>
      
      <!-- Connection -->
      <line x1="-15" y1="0" x2="15" y2="0" stroke="white" stroke-width="2"/>
      <polygon points="12,-4 20,0 12,4" fill="white"/>
    </g>
    
    <text x="90" y="138" text-anchor="middle" font-family="'Segoe UI', Arial" font-size="9" fill="#E3F2FD">Attention Mechanisms</text>
  </g>
  
  <!-- Arrow -->
  <line x1="750" y1="170" x2="790" y2="170" stroke="#5C6BC0" stroke-width="3" marker-end="url(#arrow)"/>
  
  <!-- Output: 3D Structure -->
  <g transform="translate(810, 95)" filter="url(#shadow)">
    <rect width="120" height="150" rx="12" fill="url(#proteinGrad)"/>
    <text x="60" y="25" text-anchor="middle" font-family="'Segoe UI', Arial" font-size="13" font-weight="600" fill="white">3D Structure</text>
    
    <!-- Simplified protein structure -->
    <g transform="translate(60, 85)">
      <!-- Alpha helix representation -->
      <path d="M-30,-30 Q-20,-40 0,-35 Q20,-30 30,-40" stroke="#E1BEE7" stroke-width="8" fill="none" stroke-linecap="round"/>
      <path d="M-25,-10 Q-10,0 10,-5 Q30,-10 35,0" stroke="#CE93D8" stroke-width="8" fill="none" stroke-linecap="round"/>
      <path d="M-30,15 Q-15,25 5,20 Q25,15 35,25" stroke="#BA68C8" stroke-width="8" fill="none" stroke-linecap="round"/>
      <!-- Beta sheet -->
      <polygon points="-20,35 0,30 20,35 0,45" fill="#9C27B0" stroke="#7B1FA2" stroke-width="2"/>
    </g>
    
    <text x="60" y="140" text-anchor="middle" font-family="'Segoe UI', Arial" font-size="9" fill="#F3E5F5">PDB Format</text>
  </g>
  
  <!-- Confidence Metrics Panel -->
  <g transform="translate(40, 280)" filter="url(#shadow)">
    <rect width="280" height="180" rx="12" fill="white" stroke="#E0E0E0"/>
    <text x="140" y="28" text-anchor="middle" font-family="'Segoe UI', Arial" font-size="15" font-weight="600" fill="#263238">Confidence Metrics</text>
    <line x1="20" y1="42" x2="260" y2="42" stroke="#E0E0E0"/>
    
    <!-- pLDDT -->
    <g transform="translate(20, 60)">
      <text x="0" y="0" font-family="'Segoe UI', Arial" font-size="12" font-weight="600" fill="#37474F">pLDDT Score (0-100)</text>
      <rect y="10" width="240" height="20" rx="4" fill="#ECEFF1"/>
      <rect y="10" width="60" height="20" rx="4" fill="#D32F2F"/>
      <rect x="60" y="10" width="60" height="20" fill="#FFC107"/>
      <rect x="120" y="10" width="60" height="20" fill="#4CAF50"/>
      <rect x="180" y="10" width="60" height="20" rx="4" fill="#1565C0"/>
      <text x="30" y="24" text-anchor="middle" font-family="'Segoe UI', Arial" font-size="8" fill="white">&lt;50</text>
      <text x="90" y="24" text-anchor="middle" font-family="'Segoe UI', Arial" font-size="8" fill="white">50-70</text>
      <text x="150" y="24" text-anchor="middle" font-family="'Segoe UI', Arial" font-size="8" fill="white">70-90</text>
      <text x="210" y="24" text-anchor="middle" font-family="'Segoe UI', Arial" font-size="8" fill="white">&gt;90</text>
      <text x="30" y="45" text-anchor="middle" font-family="'Segoe UI', Arial" font-size="9" fill="#757575">Low</text>
      <text x="210" y="45" text-anchor="middle" font-family="'Segoe UI', Arial" font-size="9" fill="#757575">High</text>
    </g>
    
    <!-- PAE -->
    <g transform="translate(20, 120)">
      <text x="0" y="0" font-family="'Segoe UI', Arial" font-size="12" font-weight="600" fill="#37474F">PAE (Predicted Aligned Error)</text>
      <text x="0" y="18" font-family="'Segoe UI', Arial" font-size="10" fill="#607D8B">Inter-domain confidence measure</text>
      <text x="0" y="35" font-family="'Segoe UI', Arial" font-size="10" fill="#607D8B">Lower values = higher confidence</text>
    </g>
  </g>
  
  <!-- Applications Panel -->
  <g transform="translate(350, 280)" filter="url(#shadow)">
    <rect width="260" height="180" rx="12" fill="white" stroke="#E0E0E0"/>
    <text x="130" y="28" text-anchor="middle" font-family="'Segoe UI', Arial" font-size="15" font-weight="600" fill="#1565C0">Applications</text>
    <line x1="20" y1="42" x2="240" y2="42" stroke="#E0E0E0"/>
    
    <g transform="translate(25, 60)">
      <circle cx="8" cy="0" r="6" fill="#E91E63"/>
      <text x="22" y="4" font-family="'Segoe UI', Arial" font-size="11" fill="#37474F">Drug Target Discovery</text>
      
      <circle cx="8" cy="28" r="6" fill="#9C27B0"/>
      <text x="22" y="32" font-family="'Segoe UI', Arial" font-size="11" fill="#37474F">Enzyme Engineering</text>
      
      <circle cx="8" cy="56" r="6" fill="#3F51B5"/>
      <text x="22" y="60" font-family="'Segoe UI', Arial" font-size="11" fill="#37474F">Disease Mechanism Studies</text>
      
      <circle cx="8" cy="84" r="6" fill="#00897B"/>
      <text x="22" y="88" font-family="'Segoe UI', Arial" font-size="11" fill="#37474F">Antibody Design</text>
      
      <circle cx="8" cy="112" r="6" fill="#FF5722"/>
      <text x="22" y="116" font-family="'Segoe UI', Arial" font-size="11" fill="#37474F">Protein-Protein Interactions</text>
    </g>
  </g>
  
  <!-- Resources Panel -->
  <g transform="translate(640, 280)" filter="url(#shadow)">
    <rect width="280" height="180" rx="12" fill="#E3F2FD"/>
    <text x="140" y="28" text-anchor="middle" font-family="'Segoe UI', Arial" font-size="15" font-weight="600" fill="#1565C0">Resources</text>
    <line x1="20" y1="42" x2="260" y2="42" stroke="#BBDEFB"/>
    
    <g transform="translate(25, 60)">
      <rect width="230" height="30" rx="4" fill="white"/>
      <text x="115" y="20" text-anchor="middle" font-family="'Courier New'" font-size="10" fill="#1565C0">alphafold.ebi.ac.uk</text>
      
      <rect y="40" width="230" height="30" rx="4" fill="white"/>
      <text x="115" y="60" text-anchor="middle" font-family="'Courier New'" font-size="10" fill="#1565C0">github.com/deepmind/alphafold</text>
      
      <rect y="80" width="230" height="30" rx="4" fill="white"/>
      <text x="115" y="100" text-anchor="middle" font-family="'Courier New'" font-size="10" fill="#1565C0">ColabFold (Faster inference)</text>
    </g>
  </g>
  
  <!-- Footer -->
  <g transform="translate(40, 470)">
    <rect width="870" height="25" rx="5" fill="#ECEFF1"/>
    <text x="435" y="17" text-anchor="middle" font-family="'Segoe UI', Arial" font-size="11" fill="#546E7A">AlphaFold2 solved the 50-year protein folding challenge | Nature 2021 | 200M+ predicted structures in AlphaFold DB</text>
  </g>
</svg>
