<svg xmlns="http://www.w3.org/2000/svg" viewBox="0 0 800 500">
  <defs>
    <linearGradient id="seq1Grad" x1="0%" y1="0%" x2="100%" y2="100%">
      <stop offset="0%" style="stop-color:#1565C0;stop-opacity:1" />
      <stop offset="100%" style="stop-color:#42A5F5;stop-opacity:1" />
    </linearGradient>
    <linearGradient id="seq2Grad" x1="0%" y1="0%" x2="100%" y2="100%">
      <stop offset="0%" style="stop-color:#43A047;stop-opacity:1" />
      <stop offset="100%" style="stop-color:#66BB6A;stop-opacity:1" />
    </linearGradient>
    <filter id="shadowAlign" x="-20%" y="-20%" width="140%" height="140%">
      <feDropShadow dx="2" dy="2" stdDeviation="3" flood-opacity="0.25"/>
    </filter>
  </defs>
  
  <!-- Background -->
  <rect width="800" height="500" fill="#FAFAFA"/>
  
  <!-- Title -->
  <text x="400" y="35" text-anchor="middle" font-family="Arial, sans-serif" font-size="24" font-weight="bold" fill="#1565C0">Sequence Alignment</text>
  
  <!-- Global Alignment Section -->
  <g transform="translate(50, 60)">
    <rect x="0" y="0" width="330" height="200" fill="white" stroke="#1565C0" stroke-width="2" rx="10" filter="url(#shadowAlign)"/>
    <rect x="0" y="0" width="330" height="35" fill="url(#seq1Grad)" rx="10"/>
    <rect x="0" y="27" width="330" height="8" fill="url(#seq1Grad)"/>
    <text x="165" y="25" text-anchor="middle" font-family="Arial, sans-serif" font-size="16" font-weight="bold" fill="white">Global Alignment</text>
    <text x="165" y="55" text-anchor="middle" font-family="Arial, sans-serif" font-size="11" fill="#666">(Needleman-Wunsch)</text>
    
    <!-- Sequences -->
    <g transform="translate(20, 75)">
      <text x="0" y="0" font-family="Arial, sans-serif" font-size="11" fill="#666">Seq 1:</text>
      <g transform="translate(45, -15)">
        <rect x="0" y="0" width="22" height="22" fill="#1565C0" rx="2"/>
        <text x="11" y="16" text-anchor="middle" font-family="monospace" font-size="12" fill="white">G</text>
        <rect x="25" y="0" width="22" height="22" fill="#1565C0" rx="2"/>
        <text x="36" y="16" text-anchor="middle" font-family="monospace" font-size="12" fill="white">A</text>
        <rect x="50" y="0" width="22" height="22" fill="#1565C0" rx="2"/>
        <text x="61" y="16" text-anchor="middle" font-family="monospace" font-size="12" fill="white">T</text>
        <rect x="75" y="0" width="22" height="22" fill="#1565C0" rx="2"/>
        <text x="86" y="16" text-anchor="middle" font-family="monospace" font-size="12" fill="white">T</text>
        <rect x="100" y="0" width="22" height="22" fill="#1565C0" rx="2"/>
        <text x="111" y="16" text-anchor="middle" font-family="monospace" font-size="12" fill="white">A</text>
        <rect x="125" y="0" width="22" height="22" fill="#1565C0" rx="2"/>
        <text x="136" y="16" text-anchor="middle" font-family="monospace" font-size="12" fill="white">C</text>
        <rect x="150" y="0" width="22" height="22" fill="#1565C0" rx="2"/>
        <text x="161" y="16" text-anchor="middle" font-family="monospace" font-size="12" fill="white">A</text>
        <rect x="175" y="0" width="22" height="22" fill="#42A5F5" rx="2"/>
        <text x="186" y="16" text-anchor="middle" font-family="monospace" font-size="12" fill="white">-</text>
        <rect x="200" y="0" width="22" height="22" fill="#1565C0" rx="2"/>
        <text x="211" y="16" text-anchor="middle" font-family="monospace" font-size="12" fill="white">G</text>
      </g>
      
      <!-- Match indicators -->
      <g transform="translate(45, 12)">
        <text x="11" y="0" text-anchor="middle" font-family="Arial, sans-serif" font-size="10" fill="#43A047">|</text>
        <text x="36" y="0" text-anchor="middle" font-family="Arial, sans-serif" font-size="10" fill="#43A047">|</text>
        <text x="61" y="0" text-anchor="middle" font-family="Arial, sans-serif" font-size="10" fill="#43A047">|</text>
        <text x="86" y="0" text-anchor="middle" font-family="Arial, sans-serif" font-size="10" fill="#43A047">|</text>
        <text x="111" y="0" text-anchor="middle" font-family="Arial, sans-serif" font-size="10" fill="#E53935">×</text>
        <text x="136" y="0" text-anchor="middle" font-family="Arial, sans-serif" font-size="10" fill="#43A047">|</text>
        <text x="161" y="0" text-anchor="middle" font-family="Arial, sans-serif" font-size="10" fill="#43A047">|</text>
        <text x="186" y="0" text-anchor="middle" font-family="Arial, sans-serif" font-size="10" fill="#FB8C00">-</text>
        <text x="211" y="0" text-anchor="middle" font-family="Arial, sans-serif" font-size="10" fill="#43A047">|</text>
      </g>
      
      <text x="0" y="35" font-family="Arial, sans-serif" font-size="11" fill="#666">Seq 2:</text>
      <g transform="translate(45, 20)">
        <rect x="0" y="0" width="22" height="22" fill="#43A047" rx="2"/>
        <text x="11" y="16" text-anchor="middle" font-family="monospace" font-size="12" fill="white">G</text>
        <rect x="25" y="0" width="22" height="22" fill="#43A047" rx="2"/>
        <text x="36" y="16" text-anchor="middle" font-family="monospace" font-size="12" fill="white">A</text>
        <rect x="50" y="0" width="22" height="22" fill="#43A047" rx="2"/>
        <text x="61" y="16" text-anchor="middle" font-family="monospace" font-size="12" fill="white">T</text>
        <rect x="75" y="0" width="22" height="22" fill="#43A047" rx="2"/>
        <text x="86" y="16" text-anchor="middle" font-family="monospace" font-size="12" fill="white">T</text>
        <rect x="100" y="0" width="22" height="22" fill="#E53935" rx="2"/>
        <text x="111" y="16" text-anchor="middle" font-family="monospace" font-size="12" fill="white">G</text>
        <rect x="125" y="0" width="22" height="22" fill="#43A047" rx="2"/>
        <text x="136" y="16" text-anchor="middle" font-family="monospace" font-size="12" fill="white">C</text>
        <rect x="150" y="0" width="22" height="22" fill="#43A047" rx="2"/>
        <text x="161" y="16" text-anchor="middle" font-family="monospace" font-size="12" fill="white">A</text>
        <rect x="175" y="0" width="22" height="22" fill="#FB8C00" rx="2"/>
        <text x="186" y="16" text-anchor="middle" font-family="monospace" font-size="12" fill="white">T</text>
        <rect x="200" y="0" width="22" height="22" fill="#43A047" rx="2"/>
        <text x="211" y="16" text-anchor="middle" font-family="monospace" font-size="12" fill="white">G</text>
      </g>
    </g>
    
    <!-- Description -->
    <text x="165" y="140" text-anchor="middle" font-family="Arial, sans-serif" font-size="11" fill="#333">Aligns entire length of both sequences</text>
    
    <!-- Legend -->
    <g transform="translate(40, 155)">
      <rect x="0" y="0" width="15" height="15" fill="#43A047" rx="2"/>
      <text x="20" y="12" font-family="Arial, sans-serif" font-size="9" fill="#666">Match</text>
      
      <rect x="70" y="0" width="15" height="15" fill="#E53935" rx="2"/>
      <text x="90" y="12" font-family="Arial, sans-serif" font-size="9" fill="#666">Mismatch</text>
      
      <rect x="155" y="0" width="15" height="15" fill="#FB8C00" rx="2"/>
      <text x="175" y="12" font-family="Arial, sans-serif" font-size="9" fill="#666">Gap/Insertion</text>
    </g>
    
    <text x="165" y="190" text-anchor="middle" font-family="Arial, sans-serif" font-size="10" fill="#1565C0" font-weight="bold">Best for: similar-length sequences</text>
  </g>
  
  <!-- Local Alignment Section -->
  <g transform="translate(420, 60)">
    <rect x="0" y="0" width="330" height="200" fill="white" stroke="#43A047" stroke-width="2" rx="10" filter="url(#shadowAlign)"/>
    <rect x="0" y="0" width="330" height="35" fill="url(#seq2Grad)" rx="10"/>
    <rect x="0" y="27" width="330" height="8" fill="url(#seq2Grad)"/>
    <text x="165" y="25" text-anchor="middle" font-family="Arial, sans-serif" font-size="16" font-weight="bold" fill="white">Local Alignment</text>
    <text x="165" y="55" text-anchor="middle" font-family="Arial, sans-serif" font-size="11" fill="#666">(Smith-Waterman / BLAST)</text>
    
    <!-- Full sequences -->
    <g transform="translate(20, 75)">
      <text x="0" y="0" font-family="Arial, sans-serif" font-size="10" fill="#999">...ACGT</text>
      <g transform="translate(35, -15)">
        <rect x="0" y="0" width="18" height="22" fill="#E0E0E0" rx="2"/>
        <text x="9" y="16" text-anchor="middle" font-family="monospace" font-size="10" fill="#999">A</text>
        <rect x="20" y="0" width="18" height="22" fill="#E0E0E0" rx="2"/>
        <text x="29" y="16" text-anchor="middle" font-family="monospace" font-size="10" fill="#999">C</text>
        
        <!-- Highlighted region -->
        <rect x="40" y="-3" width="140" height="28" fill="none" stroke="#43A047" stroke-width="3" stroke-dasharray="4" rx="5"/>
        
        <rect x="45" y="0" width="18" height="22" fill="#43A047" rx="2"/>
        <text x="54" y="16" text-anchor="middle" font-family="monospace" font-size="10" fill="white">G</text>
        <rect x="65" y="0" width="18" height="22" fill="#43A047" rx="2"/>
        <text x="74" y="16" text-anchor="middle" font-family="monospace" font-size="10" fill="white">A</text>
        <rect x="85" y="0" width="18" height="22" fill="#43A047" rx="2"/>
        <text x="94" y="16" text-anchor="middle" font-family="monospace" font-size="10" fill="white">T</text>
        <rect x="105" y="0" width="18" height="22" fill="#43A047" rx="2"/>
        <text x="114" y="16" text-anchor="middle" font-family="monospace" font-size="10" fill="white">T</text>
        <rect x="125" y="0" width="18" height="22" fill="#43A047" rx="2"/>
        <text x="134" y="16" text-anchor="middle" font-family="monospace" font-size="10" fill="white">C</text>
        <rect x="145" y="0" width="18" height="22" fill="#43A047" rx="2"/>
        <text x="154" y="16" text-anchor="middle" font-family="monospace" font-size="10" fill="white">A</text>
        
        <rect x="185" y="0" width="18" height="22" fill="#E0E0E0" rx="2"/>
        <text x="194" y="16" text-anchor="middle" font-family="monospace" font-size="10" fill="#999">T</text>
        <rect x="205" y="0" width="18" height="22" fill="#E0E0E0" rx="2"/>
        <text x="214" y="16" text-anchor="middle" font-family="monospace" font-size="10" fill="#999">G</text>
      </g>
      <text x="265" y="0" font-family="Arial, sans-serif" font-size="10" fill="#999">CGT...</text>
      
      <!-- Match indicators -->
      <g transform="translate(80, 12)">
        <text x="9" y="0" text-anchor="middle" font-family="Arial, sans-serif" font-size="10" fill="#43A047">|</text>
        <text x="29" y="0" text-anchor="middle" font-family="Arial, sans-serif" font-size="10" fill="#43A047">|</text>
        <text x="49" y="0" text-anchor="middle" font-family="Arial, sans-serif" font-size="10" fill="#43A047">|</text>
        <text x="69" y="0" text-anchor="middle" font-family="Arial, sans-serif" font-size="10" fill="#43A047">|</text>
        <text x="89" y="0" text-anchor="middle" font-family="Arial, sans-serif" font-size="10" fill="#43A047">|</text>
        <text x="109" y="0" text-anchor="middle" font-family="Arial, sans-serif" font-size="10" fill="#43A047">|</text>
      </g>
      
      <text x="0" y="35" font-family="Arial, sans-serif" font-size="10" fill="#999">...TGCA</text>
      <g transform="translate(35, 20)">
        <rect x="0" y="0" width="18" height="22" fill="#E0E0E0" rx="2"/>
        <text x="9" y="16" text-anchor="middle" font-family="monospace" font-size="10" fill="#999">C</text>
        <rect x="20" y="0" width="18" height="22" fill="#E0E0E0" rx="2"/>
        <text x="29" y="16" text-anchor="middle" font-family="monospace" font-size="10" fill="#999">T</text>
        
        <rect x="45" y="0" width="18" height="22" fill="#66BB6A" rx="2"/>
        <text x="54" y="16" text-anchor="middle" font-family="monospace" font-size="10" fill="white">G</text>
        <rect x="65" y="0" width="18" height="22" fill="#66BB6A" rx="2"/>
        <text x="74" y="16" text-anchor="middle" font-family="monospace" font-size="10" fill="white">A</text>
        <rect x="85" y="0" width="18" height="22" fill="#66BB6A" rx="2"/>
        <text x="94" y="16" text-anchor="middle" font-family="monospace" font-size="10" fill="white">T</text>
        <rect x="105" y="0" width="18" height="22" fill="#66BB6A" rx="2"/>
        <text x="114" y="16" text-anchor="middle" font-family="monospace" font-size="10" fill="white">T</text>
        <rect x="125" y="0" width="18" height="22" fill="#66BB6A" rx="2"/>
        <text x="134" y="16" text-anchor="middle" font-family="monospace" font-size="10" fill="white">C</text>
        <rect x="145" y="0" width="18" height="22" fill="#66BB6A" rx="2"/>
        <text x="154" y="16" text-anchor="middle" font-family="monospace" font-size="10" fill="white">A</text>
        
        <rect x="185" y="0" width="18" height="22" fill="#E0E0E0" rx="2"/>
        <text x="194" y="16" text-anchor="middle" font-family="monospace" font-size="10" fill="#999">A</text>
        <rect x="205" y="0" width="18" height="22" fill="#E0E0E0" rx="2"/>
        <text x="214" y="16" text-anchor="middle" font-family="monospace" font-size="10" fill="#999">C</text>
      </g>
      <text x="265" y="35" font-family="Arial, sans-serif" font-size="10" fill="#999">TAC...</text>
    </g>
    
    <!-- Description -->
    <text x="165" y="140" text-anchor="middle" font-family="Arial, sans-serif" font-size="11" fill="#333">Finds best matching regions (HSPs)</text>
    
    <!-- Use case -->
    <rect x="40" y="155" width="250" height="25" fill="#E8F5E9" rx="5"/>
    <text x="165" y="172" text-anchor="middle" font-family="Arial, sans-serif" font-size="10" fill="#2E7D32">🔍 Finding conserved domains &amp; motifs</text>
    
    <text x="165" y="190" text-anchor="middle" font-family="Arial, sans-serif" font-size="10" fill="#43A047" font-weight="bold">Best for: database searches, domains</text>
  </g>
  
  <!-- Multiple Sequence Alignment -->
  <g transform="translate(100, 280)">
    <rect x="0" y="0" width="600" height="190" fill="white" stroke="#7B1FA2" stroke-width="2" rx="10" filter="url(#shadowAlign)"/>
    <rect x="0" y="0" width="600" height="35" fill="#7B1FA2" rx="10"/>
    <rect x="0" y="27" width="600" height="8" fill="#7B1FA2"/>
    <text x="300" y="25" text-anchor="middle" font-family="Arial, sans-serif" font-size="16" font-weight="bold" fill="white">Multiple Sequence Alignment (MSA)</text>
    
    <!-- MSA visualization -->
    <g transform="translate(30, 55)">
      <text x="0" y="0" font-family="Arial, sans-serif" font-size="10" fill="#666">Human:</text>
      <text x="60" y="0" font-family="monospace" font-size="11" fill="#333">MVLSPADKTNVKAAWGKVGAHAGEYGAEALERM</text>
      
      <text x="0" y="20" font-family="Arial, sans-serif" font-size="10" fill="#666">Mouse:</text>
      <text x="60" y="20" font-family="monospace" font-size="11" fill="#333">MVLSGEDKSNIKAAWGKIGGHGAEYGAEALERM</text>
      
      <text x="0" y="40" font-family="Arial, sans-serif" font-size="10" fill="#666">Chicken:</text>
      <text x="60" y="40" font-family="monospace" font-size="11" fill="#333">MVLSAADKNNVKGIFGKISSHAEDYGAEALERM</text>
      
      <text x="0" y="60" font-family="Arial, sans-serif" font-size="10" fill="#666">Fish:</text>
      <text x="60" y="60" font-family="monospace" font-size="11" fill="#333">MSLSDKDKAAVRALWSKIGKSADAIGNDALSRM</text>
      
      <!-- Conservation bar -->
      <text x="0" y="85" font-family="Arial, sans-serif" font-size="10" fill="#7B1FA2" font-weight="bold">Conservation:</text>
      <rect x="60" y="75" width="10" height="12" fill="#7B1FA2" rx="1"/>
      <rect x="72" y="78" width="10" height="9" fill="#AB47BC" rx="1"/>
      <rect x="84" y="75" width="10" height="12" fill="#7B1FA2" rx="1"/>
      <rect x="96" y="78" width="10" height="9" fill="#AB47BC" rx="1"/>
      <rect x="108" y="80" width="10" height="7" fill="#CE93D8" rx="1"/>
      <rect x="120" y="82" width="10" height="5" fill="#E1BEE7" rx="1"/>
      <rect x="132" y="80" width="10" height="7" fill="#CE93D8" rx="1"/>
      <rect x="144" y="78" width="10" height="9" fill="#AB47BC" rx="1"/>
      <rect x="156" y="80" width="10" height="7" fill="#CE93D8" rx="1"/>
      <rect x="168" y="82" width="10" height="5" fill="#E1BEE7" rx="1"/>
      <rect x="180" y="78" width="10" height="9" fill="#AB47BC" rx="1"/>
      <rect x="192" y="82" width="10" height="5" fill="#E1BEE7" rx="1"/>
      <rect x="204" y="75" width="10" height="12" fill="#7B1FA2" rx="1"/>
      <rect x="216" y="82" width="10" height="5" fill="#E1BEE7" rx="1"/>
      <rect x="228" y="78" width="10" height="9" fill="#AB47BC" rx="1"/>
      <rect x="240" y="80" width="10" height="7" fill="#CE93D8" rx="1"/>
      <rect x="252" y="82" width="10" height="5" fill="#E1BEE7" rx="1"/>
      
      <text x="300" y="85" font-family="Arial, sans-serif" font-size="9" fill="#666">█ High  ▄ Medium  ▂ Low</text>
    </g>
    
    <!-- Tools -->
    <g transform="translate(30, 145)">
      <text x="0" y="0" font-family="Arial, sans-serif" font-size="11" fill="#333" font-weight="bold">Tools:</text>
      <rect x="50" y="-12" width="70" height="20" fill="#E8F5E9" stroke="#43A047" rx="4"/>
      <text x="85" y="3" text-anchor="middle" font-family="Arial, sans-serif" font-size="10" fill="#2E7D32">ClustalW</text>
      
      <rect x="130" y="-12" width="70" height="20" fill="#E3F2FD" stroke="#1565C0" rx="4"/>
      <text x="165" y="3" text-anchor="middle" font-family="Arial, sans-serif" font-size="10" fill="#1565C0">MUSCLE</text>
      
      <rect x="210" y="-12" width="70" height="20" fill="#FFF3E0" stroke="#FB8C00" rx="4"/>
      <text x="245" y="3" text-anchor="middle" font-family="Arial, sans-serif" font-size="10" fill="#E65100">MAFFT</text>
      
      <rect x="290" y="-12" width="70" height="20" fill="#F3E5F5" stroke="#7B1FA2" rx="4"/>
      <text x="325" y="3" text-anchor="middle" font-family="Arial, sans-serif" font-size="10" fill="#7B1FA2">T-Coffee</text>
      
      <text x="400" y="0" font-family="Arial, sans-serif" font-size="10" fill="#666">→ Phylogenetics, Conservation analysis</text>
    </g>
  </g>
  
  <!-- Footer -->
  <text x="400" y="490" text-anchor="middle" font-family="Arial, sans-serif" font-size="11" fill="#888">Sequence alignment is fundamental to comparative genomics, homology detection, and evolutionary analysis</text>
</svg>